# xmcd
#
# Track frame offsets:
# 150
# 10925
# 22972
# 46282
# 62092
# 73680
# 89172
# 104217
# 117787
# 133595
# 147587
# 163605
# 174135
# 187342
# 198507
# 210880
# 223342
# 237447
# 248250
# 259287
# 270457
# 283017
#
# Disc length: 3962 seconds
#
#
# Revision: 0
# Processed by: cddbd v1.5.1PL2 Copyright (c) Steve Scherf et al.
# Submitted via: FreeRIP 2.945 
#
DISCID=510f7816
DTITLE=Sheb Wooley - 22 Greatest Hits Of Sheb Wooley Or Do You Say Ben Colder
DYEAR=1997
DGENRE=Country
TTITLE0=Purple People Eater
TTITLE1=That's My Pa
TTITLE2=I Walk The Line No. 2
TTITLE3=Detroit City No. 2
TTITLE4=Runnin' Bare
TTITLE5=Don't Go Near The Eskimos
TTITLE6=Harper Vallye P.T.A (Later The Same Day)
TTITLE7=Little Green Apples
TTITLE8=10 Little Bottles
TTITLE9=15 Beers Ago
TTITLE10=Almost Persuaded
TTITLE11=Hello Walls No. 2
TTITLE12=Green Green Grass Of Home No. 2
TTITLE13=Sunday Morning Fallin' Down
TTITLE14=Rollin' In My Sweet Baby's Arms
TTITLE15=Folsom Prison Blues
TTITLE16=Little Brown Shack Out Back
TTITLE17=D-I-V-O-R-C-E No.2
TTITLE18=Easy Lovin'
TTITLE19=Help Me Fake It Through The Night
TTITLE20=Ruby
TTITLE21=The Games People Play
EXTD=TeeVee Records
EXTT0=
EXTT1=
EXTT2=
EXTT3=
EXTT4=
EXTT5=
EXTT6=
EXTT7=
EXTT8=
EXTT9=
EXTT10=
EXTT11=
EXTT12=
EXTT13=
EXTT14=
EXTT15=
EXTT16=
EXTT17=
EXTT18=
EXTT19=
EXTT20=
EXTT21=
PLAYORDER=
